<?xml version="1.0" encoding="utf-8"?>
<!-- Generator: Adobe Illustrator 25.4.1, SVG Export Plug-In . SVG Version: 6.00 Build 0)  -->
<svg version="1.1" id="Capa_1" xmlns="http://www.w3.org/2000/svg" xmlns:xlink="http://www.w3.org/1999/xlink" x="0px" y="0px"
	 viewBox="0 0 35 35" style="enable-background:new 0 0 35 35;" xml:space="preserve">
<style type="text/css">
	.st0{fill:#808080;}
</style>
<path id="facebook-square" class="st0" d="M28.4,0c1.7,0,3.4,0.7,4.6,1.9c1.3,1.2,2,2.9,1.9,4.6v21.9c0,3.6-2.9,6.6-6.6,6.6h-4.3
	V21.4h4.5l0.7-5.3h-5.2v-3.4c-0.1-0.7,0.1-1.4,0.5-1.9c0.6-0.5,1.3-0.7,2.1-0.6l2.8,0V5.5c-1.3-0.2-2.7-0.2-4.1-0.2
	c-1.8-0.1-3.6,0.6-5,1.8c-1.3,1.4-2,3.3-1.9,5.2v3.9h-4.6v5.3h4.6V35H6.6c-1.7,0-3.4-0.7-4.6-1.9c-1.3-1.2-2-2.9-1.9-4.6V6.6
	c0-1.7,0.7-3.4,1.9-4.6C3.1,0.7,4.8,0,6.6,0H28.4z"/>
</svg>
