<?xml version="1.0" encoding="utf-8"?>
<!-- Generator: Adobe Illustrator 25.4.1, SVG Export Plug-In . SVG Version: 6.00 Build 0)  -->
<svg version="1.1" id="Capa_1" xmlns="http://www.w3.org/2000/svg" xmlns:xlink="http://www.w3.org/1999/xlink" x="0px" y="0px"
	 viewBox="0 0 35 35" style="enable-background:new 0 0 35 35;" xml:space="preserve">
<style type="text/css">
	.st0{fill:#808080;}
</style>
<path id="linkedin-square" class="st0" d="M5.4,29.3h5.3V13.5H5.4V29.3z M11,8.6c0-0.7-0.3-1.4-0.8-2C9.6,6.1,8.8,5.8,8.1,5.9
	c-0.8,0-1.6,0.2-2.2,0.8c-0.5,0.5-0.9,1.2-0.8,2c0,0.7,0.3,1.4,0.8,1.9c0.6,0.5,1.3,0.8,2.1,0.8h0c0.8,0,1.6-0.2,2.2-0.8
	C10.7,10.1,11,9.3,11,8.6L11,8.6z M24.3,29.3h5.3v-9.1c0.1-1.9-0.5-3.8-1.7-5.3c-1.1-1.2-2.7-1.9-4.4-1.8c-2-0.1-3.8,1-4.8,2.7h0
	v-2.3h-5.3c0,1,0,6.3,0,15.8h5.3v-8.8c0-0.4,0-0.9,0.2-1.3c0.2-0.5,0.6-1,1-1.4c0.5-0.4,1.1-0.6,1.7-0.6c1.8,0,2.6,1.2,2.6,3.6
	L24.3,29.3z M35,6.6v21.9c0,3.6-2.9,6.6-6.6,6.6H6.6c-1.7,0-3.4-0.7-4.6-1.9c-1.3-1.2-2-2.9-1.9-4.6V6.6c0-1.7,0.7-3.4,1.9-4.6
	C3.1,0.7,4.8,0,6.6,0h21.9c1.7,0,3.4,0.7,4.6,1.9C34.3,3.1,35,4.8,35,6.6z"/>
</svg>
