<?xml version="1.0" encoding="utf-8"?>
<!-- Generator: Adobe Illustrator 25.4.1, SVG Export Plug-In . SVG Version: 6.00 Build 0)  -->
<svg version="1.1" id="Capa_1" xmlns="http://www.w3.org/2000/svg" xmlns:xlink="http://www.w3.org/1999/xlink" x="0px" y="0px"
	 viewBox="0 0 250.6 244.3" style="enable-background:new 0 0 250.6 244.3;" xml:space="preserve">
<style type="text/css">
	.st0{clip-path:url(#SVGID_00000156551229334127742780000015202702949898227102_);}
	.st1{clip-path:url(#SVGID_00000079455423018721154990000012009965215837425027_);}
	.st2{clip-path:url(#SVGID_00000046331172507690934770000017262334264270459536_);}
	.st3{fill:#FFFFFF;}
</style>
<g id="Layer_2">
	<g id="Surfaces">
		<g id="CC_Surface">
			<g id="Outline_no_shadow">
				<g>
					<defs>
						<path id="SVGID_1_" d="M47.9,5h155c23.5,0,42.5,19,42.5,42.5v149c0,23.5-19,42.5-42.5,42.5h-155c-23.5,0-42.5-19-42.5-42.5
							v-149C5.4,24,24.4,5,47.9,5z"/>
					</defs>
					<clipPath id="SVGID_00000024702456405946461540000011476546064377704856_">
						<use xlink:href="#SVGID_1_"  style="overflow:visible;"/>
					</clipPath>
					<g style="clip-path:url(#SVGID_00000024702456405946461540000011476546064377704856_);">
						<g>
							<defs>
								<rect id="SVGID_00000152229896365593001100000005393410799909644991_" x="0.4" width="250" height="244"/>
							</defs>
							<clipPath id="SVGID_00000058568533967900769850000012130084368978872493_">
								<use xlink:href="#SVGID_00000152229896365593001100000005393410799909644991_"  style="overflow:visible;"/>
							</clipPath>
							<g style="clip-path:url(#SVGID_00000058568533967900769850000012130084368978872493_);">
								<g>
									<defs>
										<rect id="SVGID_00000009576019771652303710000011221439226339637672_" x="0.4" width="250" height="244"/>
									</defs>
									<clipPath id="SVGID_00000061432570954710456130000006497394019151004072_">
										<use xlink:href="#SVGID_00000009576019771652303710000011221439226339637672_"  style="overflow:visible;"/>
									</clipPath>
									<g style="clip-path:url(#SVGID_00000061432570954710456130000006497394019151004072_);">
										
											<image style="overflow:visible;enable-background:new    ;" width="522" height="509" xlink:href="39288950.png"  transform="matrix(0.48 0 0 0.48 0 0)">
										</image>
									</g>
								</g>
							</g>
						</g>
					</g>
				</g>
			</g>
		</g>
	</g>
	<g id="Outlined_Mnemonics_Logos">
		<g id="CC_Logo_ICO_ICNS_ONLY_-_8_Scale">
			<path id="_256" class="st3" d="M197.6,75.3c-12.7-13.7-30.6-21.4-49.2-21.3c-18.2,0-36.7,7.8-48.6,20.4c-2.2-0.2-4.4-0.4-6.5-0.4
				c-35.7,0-57.8,30-57.8,57.8c0.1,15,5.9,29.4,16.2,40.4c10.8,11.5,25.8,18,41.6,18h55.1c37.4,0,67.8-30.7,67.8-68.3
				C216,104.6,209.4,88,197.6,75.3z M92.2,180.5c-26.5,0-47.9-21.5-47.9-48c0-26.3,21.3-47.7,47.7-47.9c11.7,0,23.1,4.3,31.8,12.1
				l0.2,0.2l19.9,20.4c3.3,3.4,3.2,8.8-0.2,12.1c-3.4,3.3-8.8,3.2-12.1-0.2L112,109c-12.8-11-32.1-9.6-43.1,3.2
				c-4.8,5.5-7.4,12.6-7.4,19.9c0,16.8,14.3,31,31.2,31l3.9,0l0,0.1c5.6,7.8,21.3,17.3,21.3,17.3L92.2,180.5z M190.4,163.2
				c-10.7,11.2-25.5,17.5-41,17.6c-14.7,0-29.7-6.6-41.2-18l-26.2-26.3c-3.3-3.4-3.2-8.8,0.1-12.1c1.6-1.6,3.7-2.4,6-2.4
				c2.3,0,4.5,0.9,6.1,2.6l26.1,26.1c8.3,8.3,18.9,13,29.1,13c10.9,0,21.3-4.5,28.8-12.5c7.7-7.9,12-18.5,12-29.5
				c0-22.6-18.4-40.9-41-41c-8.6,0-15.7,1.7-22.7,6.6c-0.1-0.1-2-1.3-4.1-2.6c-1.3-0.8-2.7-1.6-3.9-2.2c-1.2-0.7-4.8-2.4-6.9-3.3
				c-0.5-0.2-1.2-0.5-1.5-0.6l0.1,0c10.8-10.1,24.2-15,39-15c32.1,0,58,26,58.1,58.1C207.3,137.2,201.2,152.1,190.4,163.2z"/>
		</g>
	</g>
</g>
</svg>
