<?xml version="1.0" encoding="utf-8"?>
<!-- Generator: Adobe Illustrator 25.4.1, SVG Export Plug-In . SVG Version: 6.00 Build 0)  -->
<svg version="1.1" id="Layer_1" xmlns="http://www.w3.org/2000/svg" xmlns:xlink="http://www.w3.org/1999/xlink" x="0px" y="0px"
	 viewBox="0 0 1038.7 1012.7" style="enable-background:new 0 0 1038.7 1012.7;" xml:space="preserve">
<style type="text/css">
	.st0{fill:#808080;}
	.st1{fill:#FFFFFF;}
</style>
<path class="st0" d="M854.8,0H183.9C82.4,0,0,82.4,0,183.9v644.9c0,101.6,82.4,183.9,183.9,183.9h670.8
	c101.6,0,183.9-82.4,183.9-183.9V183.9C1038.7,82.4,956.3,0,854.8,0z"/>
<path class="st1" d="M717,761.5c-25.6-0.1-54.7-11.4-69.9-46.1L535.8,455.4c-6-14.1-25.3-14-31.2,0.1l-54.5,129.8
	c-4.8,11.4,3.5,24,15.9,24c0,0,27.5-0.2,29.2-0.2c42.1,0,76.2,34.1,76.2,76.2c0,42-34,76.1-76,76.2h-171
	c-54.2,0-90.8-55.2-69.8-105.2l153.5-365.6c19-45.1,63.4-74.4,112.2-74.4s92.8,29.2,111.8,74.1l154.5,365.6
	C807.9,706.1,771.3,761.5,717,761.5z"/>
</svg>
